<svg xmlns="http://www.w3.org/2000/svg" width="108" height="125" viewBox="0 0 540 625" version="1.1"><path d="M 210.637 1.984 C 172.215 10.186, 157.930 19.917, 151.281 42.419 C 149.188 49.503, 148.887 52.598, 148.841 67.500 C 148.764 92.630, 151.644 107.424, 161.495 132.500 C 168.247 149.687, 180.224 172.316, 189.637 185.669 C 194.338 192.338, 197.469 193.913, 202.343 192.060 C 206.264 190.569, 242.645 159.795, 258.708 144.382 C 262.187 141.044, 263 139.590, 263 136.708 C 263 132.051, 260.093 128.682, 250.289 121.977 C 222.612 103.048, 189.581 70.332, 180.842 53.190 C 176.240 44.164, 180.076 35.996, 190.810 31.959 C 200.895 28.166, 218.119 24.065, 233.500 21.794 C 254.918 18.632, 288.344 18.641, 309 21.815 C 349.235 27.996, 364.013 35.455, 361.593 48.357 C 360.607 53.613, 350.116 68.538, 339.562 79.700 C 324.849 95.261, 298.553 117.406, 284.726 125.880 C 280.357 128.557, 278 132.518, 278 137.182 C 278 140.819, 281.625 144.677, 300.998 161.653 C 306.551 166.519, 314.335 173.348, 318.297 176.829 C 331.601 188.518, 336.932 192, 341.526 192 C 346.485 192, 347.846 190.714, 354.756 179.500 C 371.638 152.104, 382.301 127.879, 388.722 102.330 C 391.258 92.240, 391.446 90.031, 391.472 70 C 391.498 50.023, 391.332 47.986, 389.123 41.245 C 383.588 24.350, 371.070 13.304, 350.500 7.161 C 327.235 0.214, 331.722 0.610, 273 0.339 C 223.745 0.112, 218.797 0.242, 210.637 1.984 M 120.195 98.132 C 114.217 101.092, 110.189 105.422, 106.851 112.477 L 104.002 118.500 104.023 318.500 C 104.043 510.375, 104.118 518.664, 105.880 522.541 C 107.932 527.059, 113.200 532, 115.966 532 C 116.963 532, 118.730 531.212, 119.893 530.250 L 122.008 528.500 122.254 326.500 C 122.485 137.166, 122.608 124.302, 124.230 121.338 C 126.372 117.424, 130.200 114.335, 133.921 113.517 C 141.156 111.928, 143.958 102.941, 138.644 98.370 C 134.942 95.186, 126.372 95.075, 120.195 98.132 M 402.736 96.642 C 400.587 97.263, 398 102.014, 398 105.340 C 398 108.641, 400.607 111.307, 406 113.522 C 408.475 114.538, 411.570 116.299, 412.879 117.435 C 418.292 122.134, 418 110.154, 418 327.313 C 418 521.134, 418.069 528.752, 419.829 530.345 C 420.835 531.255, 422.568 532, 423.681 532 C 426.902 532, 432.145 527.847, 434.413 523.500 L 436.500 519.500 436.805 321.500 C 437.024 179.591, 436.797 122.040, 436.005 118.345 C 434.496 111.313, 430.033 104.955, 423.394 100.383 C 418.461 96.985, 417.091 96.532, 411.169 96.344 C 407.501 96.227, 403.706 96.361, 402.736 96.642 M 74.923 125.923 L 72 128.846 72.022 307.673 C 72.043 481.853, 72.094 486.610, 73.964 490.729 C 75.867 494.923, 80.872 498.989, 84.139 498.996 C 85.041 498.998, 86.731 498.212, 87.896 497.250 L 90.014 495.500 90.064 311.500 L 90.114 127.500 87.501 125.250 C 83.687 121.966, 78.609 122.237, 74.923 125.923 M 452.455 125.455 L 450 127.909 450 311.883 C 450 477.799, 450.154 496.011, 451.571 497.429 C 454.107 499.965, 458.538 499.345, 462.454 495.906 C 469.423 489.787, 469 501.942, 469 307.968 C 469 182.441, 468.687 132.342, 467.887 129.899 C 466.333 125.150, 463.515 123, 458.844 123 C 456 123, 454.229 123.680, 452.455 125.455 M 137.952 135.029 C 136.692 135.808, 136.456 162.972, 136.164 340.470 L 135.828 545.014 138.017 549.534 C 141.370 556.461, 147.478 558.863, 152.139 555.088 L 154.500 553.177 154.500 370.838 C 154.500 254.046, 154.123 183.029, 153.452 173.281 L 152.403 158.062 146.630 146.546 C 143.455 140.212, 140.530 134.828, 140.131 134.581 C 139.731 134.334, 138.751 134.536, 137.952 135.029 M 396.595 141.397 C 389.939 153.299, 388.972 156.540, 387.777 170.949 C 386.993 180.413, 386.694 240.146, 386.785 369 L 386.915 553.500 389.068 555.250 C 393.977 559.239, 400.906 555.810, 403.457 548.129 C 405.003 543.475, 405.090 528.191, 404.626 344.299 C 404.349 234.960, 403.827 143.137, 403.465 140.250 C 403.046 136.906, 402.329 135, 401.490 135 C 400.765 135, 398.562 137.879, 396.595 141.397 M 43.869 141.510 C 42.421 142.296, 40.914 143.741, 40.520 144.720 C 40.126 145.699, 39.866 216.025, 39.943 301 L 40.084 455.500 42.883 459 C 47.690 465.012, 52.626 466.231, 56.494 462.363 C 57.823 461.035, 58 442.298, 58 303.352 L 58 145.846 55.077 142.923 C 51.819 139.665, 48.122 139.199, 43.869 141.510 M 484.923 142.923 L 482 145.846 482 303.423 L 482 461 484.113 463.113 C 486.752 465.752, 492.133 465.163, 495.661 461.848 C 501.187 456.658, 501 462.318, 501 299.839 C 501 164.076, 500.848 149.661, 499.380 145.991 C 496.646 139.158, 490.081 137.765, 484.923 142.923 M 8.315 157.007 C 3.370 158.999, 3.529 154.602, 3.854 280.452 C 4.105 377.931, 4.395 398.864, 5.528 401.053 C 8.533 406.865, 16.489 408.995, 19.443 404.777 C 20.831 402.796, 21 389.468, 21 281.732 L 21 160.909 18.545 158.455 C 16.001 155.910, 12.328 155.390, 8.315 157.007 M 521.861 157.910 C 519.505 159.815, 519.499 159.885, 519 187.660 C 518.725 202.972, 518.725 257.949, 519 309.831 C 519.487 401.751, 519.550 404.198, 521.441 405.581 C 526.363 409.179, 533.798 404.992, 535.894 397.442 C 537.380 392.092, 537.438 168.118, 535.956 162.779 C 535.387 160.733, 533.940 158.371, 532.739 157.529 C 529.746 155.434, 524.704 155.610, 521.861 157.910 M 168.663 227.750 C 168.300 246.313, 168.002 331.210, 168.002 416.412 L 168 571.324 170.462 575.525 C 173.541 580.779, 177.709 582.777, 181.935 581.027 C 183.654 580.315, 185.279 578.639, 185.856 576.985 C 186.486 575.177, 186.867 516.873, 186.912 415.329 C 186.997 225.315, 186.702 217.882, 178.517 204.500 C 177.172 202.300, 175.296 199.037, 174.350 197.250 C 173.404 195.463, 171.886 194, 170.977 194 C 169.485 194, 169.259 197.295, 168.663 227.750 M 367.322 199.217 C 364.802 202.524, 360.675 210.630, 358.931 215.700 C 357.775 219.060, 356.603 226.548, 356.004 234.402 C 355.396 242.379, 355.004 312.034, 355.002 412.561 C 355 577.293, 355.004 577.627, 357.039 579.811 C 361.352 584.441, 369.834 580.691, 372.046 573.176 C 373.367 568.685, 372.710 211.211, 371.366 203.580 C 370.475 198.517, 369.037 196.966, 367.322 199.217 M 201.241 215.250 C 200.579 216.075, 200.176 280.633, 200.056 405.036 L 199.875 593.571 202.164 596.536 C 205.539 600.906, 207.148 601.933, 210.677 601.968 C 212.968 601.991, 214.453 601.240, 215.997 599.277 L 218.139 596.554 217.739 416.527 C 217.381 255.341, 217.172 235.944, 215.744 231.187 C 213.890 225.015, 212.591 222.879, 207.573 217.750 C 203.588 213.678, 202.765 213.353, 201.241 215.250 M 332.804 219.207 C 326.783 226.575, 325.811 229.416, 324.858 242.453 C 324.374 249.079, 324.095 332.076, 324.239 426.892 L 324.500 599.284 327.299 601.374 L 330.098 603.463 333.799 601.482 C 336.186 600.204, 338.318 597.902, 339.803 595 L 342.107 590.500 341.547 415 C 341.240 318.475, 340.653 234.105, 340.244 227.511 C 339.372 213.462, 338.392 212.368, 332.804 219.207 M 304.589 281.720 C 299.797 291.413, 296.965 301.832, 295.817 314 C 295.117 321.413, 294.591 377.252, 294.337 471.104 C 293.953 613.012, 293.991 616.767, 295.844 619.056 C 298.692 622.572, 304.330 622.132, 308.386 618.076 L 311.500 614.962 311.735 479.731 C 312.003 324.776, 311.351 276.688, 308.973 276.232 C 307.977 276.041, 306.452 277.950, 304.589 281.720 M 230.161 313.711 C 228.620 357.121, 228.528 606.761, 230.052 612.248 C 231.681 618.115, 234.884 621.200, 239.345 621.200 C 241.542 621.200, 243.932 620.466, 245.061 619.445 C 246.962 617.724, 247 614.967, 246.992 478.095 C 246.988 397.124, 246.589 335.054, 246.041 330.295 C 245.522 325.782, 244.402 320.745, 243.553 319.102 C 242.581 317.223, 242.377 315.885, 243.004 315.498 C 247.036 313.005, 237.944 281.191, 232.923 280.224 C 231.551 279.959, 231.215 284.029, 230.161 313.711" stroke="none" fill="#faf8f9" fill-rule="evenodd"/></svg>